Patient4_TMGait_0pt6_01_right_05_GRF.mot
version=1
nRows=32
nColumns=19
inDegrees=no
endheader
time	F1x	F1y	F1z	M1x	M1y	M1z	F2x	F2y	F2z	M2x	M2y	M2z	EC1x	EC1y	EC1z	EC2x	EC2y	EC2z
5.39	-12.1476	745.8758	58.8625	-247.6993	-48.8121	637.9374	-9.0106	2.8068	-1.6613	1.5518	2.0961	4.9124	-0.0592	0.0182	-0.0073	-0.0462	0.0165	0.9585
5.4031	-7.1614	737.1206	59.662	-245.1462	-48.3868	628.5029	-6.1431	2.7503	-0.97974	1.3512	1.241	4.1551	-0.0592	0.0182	-0.0073	-0.0462	0.0165	0.9585
5.4163	-2.0864	728.6925	59.9531	-242.6657	-47.301	618.5326	-3.7527	2.7274	-0.49419	1.2212	0.62955	3.5459	-0.0592	0.0182	-0.0073	-0.0462	0.0165	0.9585
5.4294	2.8204	721.4863	59.7842	-240.5457	-45.6315	608.8441	-1.9604	2.7372	-0.1854	1.1544	0.24697	3.1117	-0.0592	0.0182	-0.0073	-0.0462	0.0165	0.9585
5.4426	7.4459	716.0757	59.3063	-238.9904	-43.553	600.0475	-0.7355	2.7739	-0.022521	1.1383	0.054059	2.8388	-0.0592	0.0182	-0.0073	-0.0462	0.0165	0.9585
5.4557	11.7732	712.6972	58.7092	-238.1025	-41.2788	592.4686	0.0042707	2.8304	0.034526	1.1566	0.00074354	2.7045	-0.0592	0.0182	-0.0073	-0.0462	0.0165	0.9585
5.4689	15.8234	711.3179	58.1197	-237.9019	-38.9655	586.1931	0.38193	2.8735	0.018489	1.1845	0.042022	2.6424	-0.0592	0.0182	-0.0073	-0.0462	0.0165	0.9585
5.482	19.6318	711.714	57.6282	-238.3463	-36.7352	581.1349	0.49548	2.8613	-0.039519	1.1946	0.14265	2.5938	-0.0592	0.0182	-0.0073	-0.0462	0.0165	0.9585
5.4951	23.246	713.5657	57.2591	-239.3587	-34.6433	577.1022	0.44648	2.7273	-0.11594	1.1523	0.27051	2.4738	-0.0592	0.0182	-0.0073	-0.0462	0.0165	0.9585
5.5083	26.7042	716.5686	57.0174	-240.8553	-32.7209	573.9031	0.31448	2.3902	-0.19425	1.019	0.40097	2.1859	-0.0592	0.0182	-0.0073	-0.0462	0.0165	0.9585
5.5214	30.0613	720.4813	56.8791	-242.7577	-30.9537	571.3685	0.1507	1.7502	-0.26459	0.74967	0.51821	1.6149	-0.0592	0.0182	-0.0073	-0.0462	0.0165	0.9585
5.5346	33.3523	725.1242	56.8382	-244.9873	-29.3347	569.3903	0.00083257	0.69326	-0.31871	0.29688	0.6041	0.62453	-0.0592	0.0182	-0.0073	-0.0462	0.0165	0.9585
5.5477	36.626	730.319	56.8931	-247.4492	-27.8457	567.8573	-0.11103	-0.8687	-0.34878	-0.37548	0.64409	-0.88267	-0.0592	0.0182	-0.0073	-0.0462	0.0165	0.9585
5.5609	39.8993	735.8311	57.0782	-250.0158	-26.498	566.6369	-0.15106	-2.9723	-0.34245	-1.2774	0.61515	-2.9488	-0.0592	0.0182	-0.0073	-0.0462	0.0165	0.9585
5.574	43.1749	741.3394	57.4341	-252.5241	-25.3059	565.542	-0.088823	-5.5139	-0.28737	-2.3632	0.49416	-5.4649	-0.0592	0.0182	-0.0073	-0.0462	0.0165	0.9585
5.5871	46.4418	746.4391	57.996	-254.7811	-24.2869	564.3241	0.12452	-8.1941	-0.16449	-3.5012	0.24785	-8.1321	-0.0592	0.0182	-0.0073	-0.0462	0.0165	0.9585
5.6003	49.6694	750.6902	58.76	-256.588	-23.4422	562.7378	0.53516	-10.4109	0.043419	-4.4326	-0.15564	-10.3465	-0.0592	0.0182	-0.0073	-0.0462	0.0165	0.9585
5.6134	52.7919	753.6173	59.6959	-257.7499	-22.7721	560.5212	1.1792	-11.1632	0.36294	-4.7318	-0.75579	-11.1034	-0.0592	0.0182	-0.0073	-0.0462	0.0165	0.9585
5.6266	55.6568	754.7011	60.7581	-258.0696	-22.2964	557.4018	2.0835	-8.9856	0.81671	-3.7775	-1.5804	-8.9391	-0.0592	0.0182	-0.0073	-0.0462	0.0165	0.9585
5.6397	58.0745	753.3984	61.8891	-257.3589	-22.0424	553.0717	3.2228	-1.9168	1.4083	-0.74112	-2.6142	-1.8848	-0.0592	0.0182	-0.0073	-0.0462	0.0165	0.9585
5.6529	59.8572	749.2025	63.0006	-255.464	-22.0189	547.2256	4.5019	12.4012	2.1082	5.3726	-3.7742	12.4224	-0.0592	0.0182	-0.0073	-0.0462	0.0165	0.9585
5.666	60.9104	741.6339	63.9316	-252.2672	-22.151	539.523	5.6837	36.4606	2.8238	15.6123	-4.8582	36.4914	-0.0592	0.0182	-0.0073	-0.0462	0.0165	0.9585
5.6791	61.2447	730.1163	64.4424	-247.6393	-22.2752	529.495	6.259	72.4252	3.3986	30.8807	-5.4882	72.5004	-0.0592	0.0182	-0.0073	-0.0462	0.0165	0.9585
5.6923	60.9448	713.7647	64.2257	-241.3632	-22.1534	516.4099	5.2685	121.353	3.5983	51.6051	-5.0249	121.5069	-0.0592	0.0182	-0.0073	-0.0462	0.0165	0.9585
5.7054	60.1061	691.2548	62.9766	-233.0796	-21.5448	499.1942	1.2007	182.1568	3.0912	77.2974	-2.5194	182.4099	-0.0592	0.0182	-0.0073	-0.0462	0.0165	0.9585
5.7186	58.7339	660.9502	60.4474	-222.3134	-20.2788	476.5682	-7.0078	250.9289	1.3745	106.2587	2.9341	251.2767	-0.0592	0.0182	-0.0073	-0.0462	0.0165	0.9585
5.7317	56.6623	621.2635	56.5314	-208.5823	-18.345	447.3323	-18.5126	321.6875	-2.1871	135.9105	11.5553	321.9782	-0.0592	0.0182	-0.0073	-0.0462	0.0165	0.9585
5.7449	53.5701	571.2823	51.3135	-191.5907	-15.9197	410.8308	-31.4493	389.575	-7.62	164.1615	22.5247	389.3467	-0.0592	0.0182	-0.0073	-0.0462	0.0165	0.9585
5.758	49.1418	511.3414	45.1058	-171.4181	-13.3201	367.3436	-44.0386	452.6674	-14.3096	190.1772	34.4424	451.1669	-0.0592	0.0182	-0.0073	-0.0462	0.0165	0.9585
5.7711	43.2353	443.1902	38.3982	-148.5944	-10.918	318.1533	-54.8178	510.8611	-21.5166	213.9131	45.9462	507.1807	-0.0592	0.0182	-0.0073	-0.0462	0.0165	0.9585
5.7843	35.9182	369.8606	31.6709	-124.0766	-8.9946	265.4451	-62.8124	564.3462	-28.5673	235.455	55.9691	557.5585	-0.0592	0.0182	-0.0073	-0.0462	0.0165	0.9585
5.7974	27.539	295.3134	25.3318	-99.1436	-7.6954	212.0216	-67.6623	612.7742	-35.0643	254.6566	63.9793	602.0539	-0.0592	0.0182	-0.0073	-0.0462	0.0165	0.9585
